<mxfile host="app.diagrams.net" agent="Mozilla/5.0 (Windows NT 10.0; Win64; x64) AppleWebKit/537.36 (KHTML, like Gecko) Chrome/138.0.0.0 Safari/537.36" version="28.0.7">
  <diagram name="ERD" id="0">
    <mxGraphModel dx="1426" dy="743" grid="1" gridSize="10" guides="1" tooltips="1" connect="1" arrows="1" fold="1" page="1" pageScale="1" pageWidth="850" pageHeight="1100" math="0" shadow="0">
      <root>
        <mxCell id="0" />
        <mxCell id="1" parent="0" />
        <mxCell id="2" value="Users" style="shape=swimlane;startSize=30;swimlaneLine=1;" parent="1" vertex="1">
          <mxGeometry x="40" y="40" width="160" height="90" as="geometry" />
        </mxCell>
        <mxCell id="3" value="id" style="text;html=1;align=left;verticalAlign=middle;spacingLeft=4;" parent="2" vertex="1">
          <mxGeometry y="30" width="160" height="20" as="geometry" />
        </mxCell>
        <mxCell id="4" value="username" style="text;html=1;align=left;verticalAlign=middle;spacingLeft=4;" parent="2" vertex="1">
          <mxGeometry y="50" width="160" height="20" as="geometry" />
        </mxCell>
        <mxCell id="5" value="email" style="text;html=1;align=left;verticalAlign=middle;spacingLeft=4;" parent="2" vertex="1">
          <mxGeometry y="70" width="160" height="20" as="geometry" />
        </mxCell>
        <mxCell id="6" value="Orders" style="shape=swimlane;startSize=30;swimlaneLine=1;" parent="1" vertex="1">
          <mxGeometry x="265" y="20" width="160" height="270" as="geometry" />
        </mxCell>
        <mxCell id="7" value="order_id" style="text;html=1;align=left;verticalAlign=middle;spacingLeft=4;" parent="6" vertex="1">
          <mxGeometry y="30" width="160" height="20" as="geometry" />
        </mxCell>
        <mxCell id="8" value="user_id" style="text;html=1;align=left;verticalAlign=middle;spacingLeft=4;" parent="6" vertex="1">
          <mxGeometry y="50" width="160" height="20" as="geometry" />
        </mxCell>
        <mxCell id="9" value="amount" style="text;html=1;align=left;verticalAlign=middle;spacingLeft=4;" parent="6" vertex="1">
          <mxGeometry y="70" width="160" height="20" as="geometry" />
        </mxCell>
        <mxCell id="10" value="date" style="text;html=1;align=left;verticalAlign=middle;spacingLeft=4;" parent="6" vertex="1">
          <mxGeometry y="90" width="160" height="20" as="geometry" />
        </mxCell>
        <mxCell id="11" value="order_id" style="text;html=1;align=left;verticalAlign=middle;spacingLeft=4;" parent="6" vertex="1">
          <mxGeometry y="110" width="160" height="20" as="geometry" />
        </mxCell>
        <mxCell id="12" value="user_id" style="text;html=1;align=left;verticalAlign=middle;spacingLeft=4;" parent="6" vertex="1">
          <mxGeometry y="130" width="160" height="20" as="geometry" />
        </mxCell>
        <mxCell id="13" value="amount" style="text;html=1;align=left;verticalAlign=middle;spacingLeft=4;" parent="6" vertex="1">
          <mxGeometry y="150" width="160" height="20" as="geometry" />
        </mxCell>
        <mxCell id="14" value="date" style="text;html=1;align=left;verticalAlign=middle;spacingLeft=4;" parent="6" vertex="1">
          <mxGeometry y="170" width="160" height="20" as="geometry" />
        </mxCell>
        <mxCell id="16" value="user_id" style="text;html=1;align=left;verticalAlign=middle;spacingLeft=4;" parent="6" vertex="1">
          <mxGeometry y="190" width="160" height="20" as="geometry" />
        </mxCell>
        <mxCell id="17" value="amount" style="text;html=1;align=left;verticalAlign=middle;spacingLeft=4;" parent="6" vertex="1">
          <mxGeometry y="210" width="160" height="20" as="geometry" />
        </mxCell>
        <mxCell id="18" value="date" style="text;html=1;align=left;verticalAlign=middle;spacingLeft=4;" parent="6" vertex="1">
          <mxGeometry y="250" width="160" height="20" as="geometry" />
        </mxCell>
        <mxCell id="8h3Dyf9pe3rnSfsElPcB-22" value="date" style="text;html=1;align=left;verticalAlign=middle;spacingLeft=4;" vertex="1" parent="6">
          <mxGeometry y="230" width="160" height="20" as="geometry" />
        </mxCell>
        <mxCell id="19" value="Products" style="shape=swimlane;startSize=30;swimlaneLine=1;" parent="1" vertex="1">
          <mxGeometry x="630" y="300" width="160" height="90" as="geometry" />
        </mxCell>
        <mxCell id="20" value="product_id" style="text;html=1;align=left;verticalAlign=middle;spacingLeft=4;" parent="19" vertex="1">
          <mxGeometry y="30" width="160" height="20" as="geometry" />
        </mxCell>
        <mxCell id="21" value="name" style="text;html=1;align=left;verticalAlign=middle;spacingLeft=4;" parent="19" vertex="1">
          <mxGeometry y="50" width="160" height="20" as="geometry" />
        </mxCell>
        <mxCell id="22" value="price" style="text;html=1;align=left;verticalAlign=middle;spacingLeft=4;" parent="19" vertex="1">
          <mxGeometry y="70" width="160" height="20" as="geometry" />
        </mxCell>
      </root>
    </mxGraphModel>
  </diagram>
</mxfile>
